<svg id="Layer_1" data-name="Layer 1" xmlns="http://www.w3.org/2000/svg" width="31" height="31" viewBox="0 0 31 31"><defs><style>.cls-1{fill:#fff;}</style></defs><path class="cls-1" d="M3.1174,23.5224c.3737-.4858.7972-1.0378,1.2223-1.5885.2491-.3227.7557-.6963.702-.9546a8.3932,8.3932,0,0,0-.834-1.9916c-.0526-.1043-.3506-.11-.5367-.117-.4463-.0161-.8939.0036-1.34-.0077a1.5793,1.5793,0,0,1-1.7635-1.52,25.0822,25.0822,0,0,1,0-3.6686A1.5718,1.5718,0,0,1,2.2515,12.16c.0558-.0026.1118,0,.1676-.0011,1.9328-.0327,1.9445-.0289,2.5567-1.8869A.8936.8936,0,0,0,4.7944,9.57c-.3119-.39-.7115-.7093-1.0479-1.082a1.5929,1.5929,0,0,1-.1-2.2749,27.7136,27.7136,0,0,1,2.5357-2.543,1.6076,1.6076,0,0,1,2.337.11,1.794,1.794,0,0,1,.2955.2959,1.6324,1.6324,0,0,0,2.4461.5479c.68-.3505,1.0134-.653.9052-1.41a5.1767,5.1767,0,0,1-.0009-1.0878A1.5159,1.5159,0,0,1,13.55.59a30.3686,30.3686,0,0,1,3.9172,0,1.533,1.533,0,0,1,1.3907,1.5362.8306.8306,0,0,1,.0022.2507c-.3393,1.4947.3866,2.27,1.7673,2.5533a1.19,1.19,0,0,0,.8476-.1661c.4014-.2926.71-.7088,1.0841-1.0435a1.5737,1.5737,0,0,1,2.2078-.0975,28.2591,28.2591,0,0,1,2.6024,2.5933,1.5934,1.5934,0,0,1-.1006,2.276c-.0551.063-.1169.12-.1751.18-1.308,1.3556-1.3191,1.3612-.4537,3.071a.9082.9082,0,0,0,.6212.3965c.4956.06,1.0038.0051,1.5059.0229a1.5432,1.5432,0,0,1,1.6689,1.4312,28.7469,28.7469,0,0,1,0,3.8347A1.5471,1.5471,0,0,1,28.85,18.8616c-.0834.006-.1675.0022-.2513.0037-1.94.0347-1.9517.0309-2.5588,1.8821a.8957.8957,0,0,0,.1811.7026c.3117.3906.7113.7094,1.0476,1.0823a1.5838,1.5838,0,0,1,.1,2.2743A27.3553,27.3553,0,0,1,24.8334,27.35a1.6062,1.6062,0,0,1-2.3373-.1094,1.7749,1.7749,0,0,1-.2955-.2959,1.6354,1.6354,0,0,0-2.446-.5486c-.6864.3495-1.0048.6608-.9,1.4129a5.2109,5.2109,0,0,1,0,1.0878,1.5233,1.5233,0,0,1-1.39,1.5353,30.8713,30.8713,0,0,1-3.9178-.0008,1.5306,1.5306,0,0,1-1.3857-1.54.8436.8436,0,0,1-.0019-.2507c.3378-1.4959-.388-2.2714-1.7714-2.551a1.1923,1.1923,0,0,0-.8472.1683,14.7787,14.7787,0,0,0-1.0849,1.0429,1.4709,1.4709,0,0,1-1.9915.226,36.5121,36.5121,0,0,1-2.9629-2.93C3.3129,24.3985,3.2936,24.039,3.1174,23.5224Zm26.1192-7.9712c0-.3072.0144-.6151-.0026-.9214-.0627-1.1291-.0666-1.1289-1.227-1.13-2.059-.0011-2.1018-.03-2.8876-1.937-.085-.2062-.1748-.4106-.2669-.6138a1.7257,1.7257,0,0,1,.3962-2.3356c1.3723-1.423,1.3723-1.423,0-2.8-1.4111-1.4164-1.4111-1.4164-2.86-.0291a1.891,1.891,0,0,1-2.2747.4315c-1.9216-.5626-3.0041-1.5875-2.623-3.7385.0311-.1755-.3326-.5832-.5475-.61a14.8159,14.8159,0,0,0-2.2551-.08c-1.1911.0321-1.1906.0526-1.1911,1.2467C13.497,5.057,13.45,5.1271,11.6165,5.87c-.2326.0943-.4606.2-.6893.3032a1.713,1.713,0,0,1-2.2739-.3616c-1.5-1.42-1.5-1.42-2.9783.094q-.0585.06-.1162.1208C4.4,7.244,4.4,7.244,5.5634,8.41c1.0284,1.0311.9547,1.3951.55,2.7476-.5632,1.882-1.65,2.6712-3.5713,2.3443-.523-.089-.7052.22-.7219.674-.0246.6693-.0591,1.34-.0438,2.0088.03,1.3392.0432,1.3389,1.36,1.3391,1.8876,0,2.0136.0873,2.7075,1.8225.1138.2844.2454.5624.3822.8367a1.7322,1.7322,0,0,1-.3683,2.1393c-1.47,1.5639-1.4629,1.57.1212,3.0928,1.2519,1.2034,1.2519,1.2034,2.5015-.0342.0992-.0983.1961-.1992.2987-.2938a1.4589,1.4589,0,0,1,1.758-.392c1.0359.5878,2.5822.4726,2.9371,2.0391a1.9029,1.9029,0,0,1,.0225.3337c.0991,2.2269.099,2.2269,2.3676,2.1876,1.6548-.0286,1.6548-.0286,1.6572-1.7264.0019-1.3928.3391-1.6475,1.5051-2.283,1.7508-.9541,3.1058-.7365,4.2563.879.2728.383.5966.3557.9145.0388q.9778-.9747,1.9536-1.9516c.3082-.3094.3772-.64-.02-.914-1.7379-1.2005-1.7974-2.6454-.8231-4.4023.552-.9954.8692-1.364,2.0315-1.3722C29.2524,17.5107,29.2524,17.5107,29.2366,15.5512Z"/><path class="cls-1" d="M21.2094,15.4858a5.7,5.7,0,1,1-5.7261-5.6733A5.7118,5.7118,0,0,1,21.2094,15.4858ZM15.511,11.1541a4.3581,4.3581,0,1,0,4.3566,4.38A4.3593,4.3593,0,0,0,15.511,11.1541Z"/></svg>