<svg id="Layer_1" data-name="Layer 1" xmlns="http://www.w3.org/2000/svg" width="31" height="31" viewBox="0 0 31 31"><defs><style>.cls-1{fill:none;stroke:#fff;stroke-miterlimit:10;stroke-width:1.586px;}</style></defs><path class="cls-1" d="M11.9975,15.4918q0-5.8393-.0025-11.6789A.9462.9462,0,0,1,12.46,2.91a.7275.7275,0,0,1,.3443-.0946q2.4947-.009,4.9893-.0029a.86.86,0,0,1,.81.8961c.0046,1.1466.0031,2.2933.0032,3.44q0,10.0015.0013,20.0029a1.17,1.17,0,0,1-.1084.5728.7739.7739,0,0,1-.6931.4619q-2.5011.0087-5.0022.0014A.8633.8633,0,0,1,12,27.284c-.0037-1.1136-.0027-2.2273-.0028-3.3409Q11.9971,19.7175,11.9975,15.4918Z"/><path class="cls-1" d="M22.8875,19.127q0-4.0552-.001-8.11a.9015.9015,0,0,1,.4643-.8592.7491.7491,0,0,1,.3454-.0923q2.4961-.0087,4.9924-.0026a.858.858,0,0,1,.8089.8973c.0042.9436.0018,1.8873.0018,2.8309q0,6.6808-.0033,13.3617a1.4122,1.4122,0,0,1-.0814.5071.7714.7714,0,0,1-.7575.5271q-2.4639.0035-4.9279,0a.8649.8649,0,0,1-.8411-.935Q22.8862,23.1893,22.8875,19.127Z"/><path class="cls-1" d="M1.5,22.7336q0-2.2434,0-4.487A.8905.8905,0,0,1,2.11,17.341a.7191.7191,0,0,1,.2284-.0321q2.4576-.0027,4.9151-.0005a.8659.8659,0,0,1,.8591.9449q.0019,4.494,0,8.9882a.8662.8662,0,0,1-.8582.9455q-2.451.0025-4.9022,0a.86.86,0,0,1-.85-.9378Q1.5,24.9914,1.5016,22.7336Z"/></svg>